<svg width="24" height="28" viewBox="0 0 24 28" fill="none" xmlns="http://www.w3.org/2000/svg">
<path d="M17.2297 12.6413C18.1432 12.799 18.7756 13.2721 19.127 13.9029C19.4783 14.5337 19.6891 15.6376 19.6891 17.0568C19.6891 19.8954 18.9162 22.2608 17.3703 24.0743C15.8244 25.8878 13.8569 26.834 11.4678 26.834C10.5543 26.834 9.64081 26.6763 8.72733 26.2821C7.81385 25.8878 7.11117 25.3359 6.47876 24.7051C5.77608 23.9955 5.21394 23.1282 4.8626 22.3397C4.58153 21.4723 4.37073 20.605 4.37073 19.7377C4.37073 18.7915 4.58153 18.003 4.93287 17.4511C5.28421 16.8992 5.91662 16.5838 6.68956 16.3472C6.54903 15.953 6.40849 15.6376 6.33823 15.3222C6.26796 15.0856 6.19769 14.8491 6.19769 14.6914C6.19769 14.2183 6.40849 13.6664 6.90037 13.1144C7.39224 12.5625 7.81385 12.326 8.23546 12.326C8.44626 12.326 8.58679 12.326 8.7976 12.4048C9.0084 12.4837 9.2192 12.5625 9.50028 12.799C8.86787 10.4336 8.23546 8.46239 7.88412 7.12197C7.53278 5.78155 7.39224 4.91422 7.39224 4.36228C7.39224 3.65265 7.53278 3.10071 7.88412 2.70647C8.16519 2.31223 8.65706 2.07568 9.2192 2.07568C10.1327 2.07568 11.3272 4.44113 12.8029 9.25087C13.0839 10.0394 13.2245 10.6701 13.365 11.1432C13.5055 10.8278 13.6461 10.2759 13.8569 9.64511C15.3325 4.91422 16.5973 2.54877 17.5811 2.54877C18.0729 2.54877 18.4946 2.70647 18.8459 3.10071C19.127 3.49495 19.3378 4.04689 19.3378 4.67768C19.3378 5.15076 19.1972 6.09694 18.8459 7.43736C18.4243 8.77778 17.9324 10.5124 17.2297 12.6413ZM6.40849 19.58C6.54903 19.7377 6.75983 20.0531 6.97064 20.4473C7.60305 21.4723 8.23546 22.0243 8.7976 22.0243C9.0084 22.0243 9.14894 21.9454 9.28947 21.7877C9.43001 21.63 9.50028 21.4723 9.50028 21.3935C9.50028 21.2358 9.43001 20.9204 9.2192 20.5262C9.0084 20.1319 8.72733 19.6588 8.37599 19.1858C7.95438 18.6338 7.60304 18.1607 7.39224 17.9242C7.11117 17.6876 6.90037 17.5299 6.75983 17.5299C6.40849 17.5299 6.05715 17.7665 5.77608 18.1607C5.49501 18.555 5.35448 19.1069 5.35448 19.6588C5.35448 20.1319 5.42474 20.605 5.63555 21.2358C5.84635 21.7877 6.12742 22.4185 6.54903 22.9705C7.18144 23.7589 7.88412 24.4686 8.7976 24.9417C9.71108 25.4148 10.6246 25.6513 11.7488 25.6513C13.7163 25.6513 15.3325 24.8628 16.6676 23.207C18.0027 21.5512 18.6351 19.5011 18.6351 16.978C18.6351 16.1895 18.5648 15.6376 18.4945 15.1645C18.4243 14.6914 18.2135 14.376 18.0027 14.2183C17.5811 13.8241 16.8081 13.5087 15.6136 13.1933C14.419 12.8779 13.1542 12.7202 11.8894 12.7202C11.538 12.7202 11.257 12.799 11.1164 12.9567C10.9759 13.1144 10.9056 13.351 10.9056 13.6664C10.9056 14.4549 11.257 15.0068 12.0299 15.3222C12.8029 15.6376 14.0677 15.8741 15.7541 15.8741H16.3865C16.5271 15.8741 16.6676 15.953 16.7379 16.0318C16.8081 16.1895 16.8784 16.3472 16.8784 16.5838C16.7379 16.7415 16.3865 16.978 15.8244 17.2145C15.2622 17.4511 14.9109 17.6876 14.6298 17.9242C13.9974 18.3973 13.5055 19.0281 13.1542 19.7377C12.8029 20.4473 12.5921 21.0781 12.5921 21.7089C12.5921 22.1031 12.6623 22.4974 12.8029 23.0493C12.9434 23.6013 13.0137 23.9166 13.0137 23.9955V24.1532V24.3109C12.5921 24.3109 12.2407 23.9955 11.9596 23.4436C11.6786 22.8916 11.6083 22.182 11.6083 21.2358V21.0781C11.538 21.157 11.4678 21.2358 11.3975 21.2358C11.3272 21.2358 11.257 21.3147 11.1164 21.3147H10.8354C10.7651 21.3147 10.6948 21.2358 10.5543 21.2358C10.5543 21.3935 10.6246 21.4724 10.6246 21.63V21.9454C10.6246 22.3397 10.484 22.7339 10.203 23.0493C9.92188 23.3647 9.57054 23.5224 9.14894 23.5224C8.51653 23.5224 7.88412 23.207 7.18144 22.4974C6.54903 21.7877 6.19769 21.157 6.19769 20.4473C6.19769 20.2896 6.19769 20.2108 6.26796 20.1319C6.26796 19.7377 6.33823 19.6588 6.40849 19.58ZM10.9759 19.9742C11.1164 19.9742 11.3272 19.8954 11.4678 19.7377C11.6083 19.58 11.6786 19.3434 11.6786 19.1858C11.6786 18.9492 11.538 18.4761 11.257 17.6876C10.9759 16.8992 10.6246 16.1107 10.203 15.401C9.92188 14.8491 9.57054 14.376 9.28947 14.1395C9.0084 13.8241 8.72733 13.7452 8.44626 13.7452C8.23546 13.7452 8.02465 13.9029 7.74358 14.2183C7.46251 14.5337 7.39224 14.7703 7.39224 15.0856C7.39224 15.3222 7.53278 15.7953 7.74358 16.3472C8.02465 16.8992 8.30572 17.4511 8.72733 18.0819C9.14894 18.7127 9.57054 19.2646 9.99215 19.6588C10.4138 19.8165 10.6948 19.9742 10.9759 19.9742ZM12.4515 11.774L10.7651 6.49118C10.3435 5.15076 10.0624 4.20459 9.78135 3.81034C9.57054 3.4161 9.35974 3.17956 9.07867 3.17956C8.86787 3.17956 8.72733 3.25841 8.58679 3.4161C8.37599 3.65265 8.30572 3.88919 8.30572 4.20459C8.30572 4.75652 8.51653 5.62385 8.86787 6.88543C9.2192 8.147 9.78135 9.88166 10.484 11.9317C10.5543 11.774 10.6246 11.6952 10.7651 11.6952C10.9056 11.6163 11.0462 11.6163 11.1867 11.6163H11.538C11.7488 11.6952 12.0299 11.6952 12.4515 11.774ZM14.1379 16.8992C13.7163 16.8992 13.2947 16.8203 12.8731 16.7415C12.4515 16.6626 12.1002 16.5838 11.7488 16.4261C11.8894 16.8203 12.0299 17.1357 12.1705 17.5299C12.311 17.9242 12.3813 18.2396 12.4515 18.6338C12.6623 18.3184 12.9434 18.003 13.2245 17.6876C13.5758 17.3722 13.8569 17.1357 14.1379 16.8992ZM16.1757 12.326C16.8784 10.2759 17.3703 8.54124 17.7919 7.20082C18.1432 5.8604 18.354 5.07192 18.354 4.75652C18.354 4.44113 18.2837 4.20459 18.1432 3.96804C18.0027 3.81034 17.8621 3.7315 17.6513 3.7315C17.3703 3.7315 17.0892 3.96804 16.8081 4.51998C16.5271 5.07192 16.1757 5.8604 15.8244 7.04312L14.2785 11.9317L16.1757 12.326Z" fill="white"/>
</svg>
