<svg width="24" height="25" viewBox="0 0 24 25" fill="none" xmlns="http://www.w3.org/2000/svg">
<g clip-path="url(#clip0_67_872)">
<path d="M12 1C5.37 1 0 6.28 0 12.792C0 18.003 3.438 22.422 8.205 23.98C8.805 24.091 9.025 23.726 9.025 23.413C9.025 23.133 9.015 22.391 9.01 21.408C5.672 22.119 4.968 19.826 4.968 19.826C4.422 18.465 3.633 18.101 3.633 18.101C2.546 17.37 3.717 17.385 3.717 17.385C4.922 17.467 5.555 18.6 5.555 18.6C6.625 20.403 8.364 19.882 9.05 19.581C9.158 18.818 9.467 18.299 9.81 18.004C7.145 17.709 4.344 16.695 4.344 12.177C4.344 10.89 4.809 9.838 5.579 9.013C5.444 8.715 5.039 7.516 5.684 5.892C5.684 5.892 6.689 5.576 8.984 7.101C9.944 6.839 10.964 6.709 11.984 6.703C13.004 6.709 14.024 6.839 14.984 7.101C17.264 5.576 18.269 5.892 18.269 5.892C18.914 7.516 18.509 8.715 18.389 9.013C19.154 9.838 19.619 10.89 19.619 12.177C19.619 16.707 16.814 17.704 14.144 17.994C14.564 18.348 14.954 19.071 14.954 20.176C14.954 21.754 14.939 23.022 14.939 23.405C14.939 23.714 15.149 24.083 15.764 23.965C20.565 22.417 24 17.995 24 12.792C24 6.28 18.627 1 12 1Z" fill="white"/>
</g>
<defs>
<clipPath id="clip0_67_872">
<rect width="24" height="24" fill="white" transform="translate(0 0.5)"/>
</clipPath>
</defs>
</svg>
