<svg width="24" height="25" viewBox="0 0 24 25" fill="none" xmlns="http://www.w3.org/2000/svg">
<g clip-path="url(#clip0_67_880)">
<path d="M22.2691 0.5H1.7309C0.774902 0.5 0 1.2749 0 2.2309V22.7691C0 23.7251 0.774902 24.5 1.7309 24.5H22.2691C23.2251 24.5 24 23.7251 24 22.7691V2.2309C24 1.2749 23.2251 0.5 22.2691 0.5V0.5ZM8.51294 18.6406H5.59039V9.84808H8.51294V18.6406ZM7.05176 8.64746H7.03271C6.052 8.64746 5.41772 7.97235 5.41772 7.1286C5.41772 6.26581 6.07141 5.60938 7.07117 5.60938C8.07092 5.60938 8.68616 6.26581 8.7052 7.1286C8.7052 7.97235 8.07092 8.64746 7.05176 8.64746ZM19.051 18.6406H16.1288V13.9368C16.1288 12.7547 15.7057 11.9485 14.6483 11.9485C13.8409 11.9485 13.3601 12.4923 13.1488 13.0173C13.0715 13.2051 13.0527 13.4677 13.0527 13.7305V18.6406H10.1303C10.1303 18.6406 10.1686 10.673 10.1303 9.84808H13.0527V11.093C13.441 10.4939 14.1359 9.64172 15.6865 9.64172C17.6093 9.64172 19.051 10.8984 19.051 13.599V18.6406Z" fill="white"/>
</g>
<defs>
<clipPath id="clip0_67_880">
<rect width="24" height="24" fill="white" transform="translate(0 0.5)"/>
</clipPath>
</defs>
</svg>
