<svg width="24" height="25" viewBox="0 0 24 25" fill="none" xmlns="http://www.w3.org/2000/svg">
<g clip-path="url(#clip0_67_883)">
<path d="M22.085 5.233L24 3.401V3H17.366L12.638 14.768L7.259 3H0.303V3.401L2.54 6.094C2.758 6.293 2.872 6.584 2.843 6.877V17.46C2.912 17.841 2.788 18.233 2.52 18.51L0 21.564V21.96H7.145V21.559L4.625 18.51C4.352 18.232 4.223 17.847 4.278 17.46V8.306L10.55 21.965H11.279L16.672 8.306V19.187C16.672 19.474 16.672 19.533 16.484 19.721L14.544 21.598V22H23.956V21.599L22.086 19.768C21.922 19.644 21.837 19.436 21.872 19.234V5.767C21.837 5.564 21.921 5.356 22.085 5.233Z" fill="white"/>
</g>
<defs>
<clipPath id="clip0_67_883">
<rect width="24" height="24" fill="white" transform="translate(0 0.5)"/>
</clipPath>
</defs>
</svg>
