<svg width="24" height="25" viewBox="0 0 24 25" fill="none" xmlns="http://www.w3.org/2000/svg">
<g clip-path="url(#clip0_67_850)">
<path d="M17.2492 15.5C16.8352 15.5 16.4992 15.836 16.4992 16.25V23H4.4992V16.25C4.4992 15.836 4.1632 15.5 3.7492 15.5C3.33521 15.5 2.99921 15.836 2.99921 16.25V23.75C2.99921 24.164 3.33521 24.5 3.7492 24.5H17.2492C17.6631 24.5 17.9991 24.164 17.9991 23.75V16.25C17.9991 15.836 17.6631 15.5 17.2492 15.5Z" fill="white"/>
<path d="M14.2492 20H6.7492C6.3352 20 5.99921 20.336 5.99921 20.75C5.99921 21.164 6.3352 21.5 6.7492 21.5H14.2492C14.6632 21.5 14.9992 21.164 14.9992 20.75C14.9992 20.336 14.6632 20 14.2492 20Z" fill="white"/>
<path d="M14.3227 17.0046L6.82276 16.2546C6.40426 16.2141 6.04426 16.5141 6.00226 16.9251C5.96176 17.3376 6.26176 17.7051 6.67426 17.7456L14.1742 18.4956C14.1997 18.4986 14.2252 18.5001 14.2507 18.5001C14.6302 18.5001 14.9572 18.2121 14.9932 17.8251C15.0367 17.4126 14.7337 17.0451 14.3227 17.0046Z" fill="white"/>
<path d="M15.2152 14.0317L7.71525 11.7817C7.31475 11.6617 6.89925 11.8882 6.78075 12.2842C6.66225 12.6817 6.88725 13.0987 7.28325 13.2187L14.7832 15.4687C14.8552 15.4897 14.9272 15.5002 14.9992 15.5002C15.3217 15.5002 15.6202 15.2902 15.7177 14.9647C15.8377 14.5672 15.6127 14.1502 15.2152 14.0317Z" fill="white"/>
<path d="M16.1137 11.0945L9.36374 7.34453C9.00224 7.14053 8.54475 7.27403 8.34375 7.63553C8.14125 7.99853 8.27175 8.45452 8.63475 8.65552L15.3847 12.4055C15.5002 12.47 15.6247 12.5 15.7492 12.5C16.0117 12.5 16.2682 12.3605 16.4047 12.1145C16.6057 11.7515 16.4752 11.2955 16.1137 11.0945Z" fill="white"/>
<path d="M17.8852 9.85246L14.1352 3.85249C13.9162 3.49999 13.4527 3.39649 13.1017 3.61399C12.7507 3.83299 12.6442 4.29649 12.8632 4.64748L16.6132 10.6475C16.7557 10.8755 17.0002 11 17.2492 11C17.3857 11 17.5237 10.964 17.6467 10.886C17.9977 10.667 18.1042 10.2035 17.8852 9.85246Z" fill="white"/>
<path d="M20.9857 8.60306L19.4857 1.10309C19.4032 0.696595 18.9922 0.432596 18.6037 0.515096C18.1957 0.596095 17.9317 0.990594 18.0142 1.39709L19.5142 8.89706C19.5862 9.25406 19.8982 9.50006 20.2477 9.50006C20.2972 9.50006 20.3467 9.49556 20.3962 9.48506C20.8042 9.40406 21.0682 9.00956 20.9857 8.60306Z" fill="white"/>
</g>
<defs>
<clipPath id="clip0_67_850">
<rect width="24" height="24" fill="white" transform="translate(0 0.5)"/>
</clipPath>
</defs>
</svg>
