<svg width="24" height="25" viewBox="0 0 24 25" fill="none" xmlns="http://www.w3.org/2000/svg">
<g clip-path="url(#clip0_67_875)">
<path d="M24 5.0585C23.1075 5.45 22.1565 5.7095 21.165 5.8355C22.185 5.2265 22.9635 4.2695 23.3295 3.116C22.3785 3.683 21.3285 4.0835 20.2095 4.307C19.3065 3.3455 18.0195 2.75 16.6155 2.75C13.8915 2.75 11.6985 4.961 11.6985 7.6715C11.6985 8.0615 11.7315 8.4365 11.8125 8.7935C7.722 8.594 4.1025 6.6335 1.671 3.647C1.2465 4.3835 0.9975 5.2265 0.9975 6.134C0.9975 7.838 1.875 9.3485 3.183 10.223C2.3925 10.208 1.617 9.9785 0.96 9.617C0.96 9.632 0.96 9.6515 0.96 9.671C0.96 12.062 2.6655 14.048 4.902 14.5055C4.5015 14.615 4.065 14.6675 3.612 14.6675C3.297 14.6675 2.979 14.6495 2.6805 14.5835C3.318 16.532 5.127 17.9645 7.278 18.011C5.604 19.3205 3.4785 20.1095 1.1775 20.1095C0.774 20.1095 0.387 20.0915 0 20.042C2.1795 21.4475 4.7625 22.25 7.548 22.25C16.602 22.25 21.552 14.75 21.552 8.249C21.552 8.0315 21.5445 7.8215 21.534 7.613C22.5105 6.92 23.331 6.0545 24 5.0585Z" fill="white"/>
</g>
<defs>
<clipPath id="clip0_67_875">
<rect width="24" height="24" fill="white" transform="translate(0 0.5)"/>
</clipPath>
</defs>
</svg>
